<svg width="60" height="60" viewBox="0 0 60 60" fill="none" xmlns="http://www.w3.org/2000/svg">
  <g transform="scale(1.7) translate(-12, -12)">

<path d="M44.618 38.445c.236-.408.382-.867.382-1.28v-14.32c0-.413-.146-.873-.382-1.28L30 30.005zM31.3 46.575l12.4-7.16c.358-.206.683-.562.918-.97L30 30.005l-14.618 8.44c.235.408.56.764.917.97l12.402 7.16c.714.412 1.884.412 2.598 0Z" stroke="#fff"/><path d="M44.618 21.565c-.235-.408-.56-.764-.917-.97l-12.402-7.16c-.714-.413-1.884-.413-2.598 0l-12.402 7.16c-.714.413-1.299 1.425-1.299 2.25v14.32c0 .413.146.872.382 1.28L30 30.005z" stroke="#fff"/><path d="M30 40.005c-5.514 0-10-4.486-10-10s4.486-10 10-10c3.558 0 6.877 1.915 8.66 4.996l-4.328 2.505A5.02 5.02 0 0 0 30 25.005a5.007 5.007 0 0 0-5 5 5.006 5.006 0 0 0 5 5.001 5.02 5.02 0 0 0 4.332-2.502l4.328 2.504A10.04 10.04 0 0 1 30 40.005Z" fill="#fff" stroke="#000"/><path d="M40 29.45h-1.113v-1.112h-1.11v1.112h-1.111v1.11h1.11v1.112h1.111V30.56H40zm4.166 0h-1.11v-1.112h-1.112v1.112h-1.111v1.11h1.11v1.112h1.112V30.56h1.11z" fill="#fff" stroke-width=".5" stroke="#000"/></g></svg>