<svg width="60" height="60" viewBox="0 0 60 60" fill="none" xmlns="http://www.w3.org/2000/svg">
<rect width="50" height="31" transform="translate(3 16)" fill="#865D8D"/>
<path d="M2.72729 13.6365H5.45457V10.9092H54.5455V13.6365H57.2728V49.091H54.5455V51.8183H5.45457V49.091H2.72729V13.6365ZM8.18184 46.3637H51.8182V24.5455H49.0909V27.2728H43.6364V30.0001H38.1818V32.7274H32.7273V35.4546H27.2727V32.7274H21.8182V30.0001H16.3637V27.2728H10.9091V24.5455H8.18184V46.3637ZM51.8182 16.3637H8.18184V19.091H13.6364V21.8183H19.0909V24.5455H24.5455V27.2728H35.4546V24.5455H40.9091V21.8183H46.3637V19.091H51.8182V16.3637Z" fill="black"/>
</svg>
