<svg width="60" height="60" viewBox="0 0 60 60" fill="none" xmlns="http://www.w3.org/2000/svg">
<g clip-path="url(#clip0_6_214)" transform="scale(0.5) translate(30, 60)">
<path d="M0 0H60V60H0V0Z" fill="none" stroke-width="2px" stroke="#fff"/>
<path d="M15.7762 50.1403L20.3678 47.3616C21.2536 48.9322 22.0595 50.261 23.9923 50.261C25.8451 50.261 27.0132 49.5363 27.0132 46.7172V27.5458H32.6516V46.7969C32.6516 52.6369 29.2284 55.2951 24.234 55.2951C19.7235 55.2951 17.1052 52.959 15.7761 50.1399" fill="white" stroke-width="1px" stroke="#000"/>
<path d="M35.7144 49.5361L40.3054 46.878C41.514 48.8517 43.0847 50.3015 45.8636 50.3015C48.1999 50.3015 49.6897 49.1334 49.6897 47.5223C49.6897 45.5891 48.1593 44.9043 45.5816 43.777L44.1724 43.1724C40.1043 41.4409 37.4057 39.2661 37.4057 34.6745C37.4057 30.4456 40.6277 27.2234 45.6624 27.2234C49.2469 27.2234 51.8245 28.4721 53.677 31.7344L49.2869 34.5536C48.3203 32.8219 47.2734 32.1373 45.6625 32.1373C44.0111 32.1373 42.9639 33.1844 42.9639 34.5536C42.9639 36.2452 44.0111 36.9301 46.4274 37.9773L47.8369 38.5814C52.6298 40.6356 55.3284 42.7297 55.3284 47.4418C55.3284 52.5168 51.3411 55.2956 45.9845 55.2956C40.7487 55.2956 37.3654 52.7986 35.7144 49.5361Z" fill="white" stroke-width="1px" stroke="#000"/>
</g>
<defs>
<clipPath id="clip0_6_214">
<rect width="60" height="60" fill="white"/>
</clipPath>
</defs>
  <g transform="scale(0.6) translate(0, 0)">
  <path d="M11.25 52.5L7.5 5.625H52.5L48.75 52.5L30 58.125L11.25 52.5Z" fill="#none" stroke-width="1px" stroke="#fff"/>
<path d="M48.75 9.375H30V55.3125L45 50.625L48.75 9.375Z" fill="#ffffff50" stroke-width="1px" stroke="#fff"/>
<path d="M17.8125 32.8125L15.9375 15H45L44.0625 20.625H21.5625L22.5 27.1875H43.125L41.25 45L30 48.75L18.75 45L17.8125 35.625H23.4375L24.375 40.3125L30 42.1875L35.625 40.3125L36.5625 32.8125H17.8125Z" fill="white" stroke-width="1px" stroke="#000"/>
</g>
  <g transform="scale(0.6) translate(45, 0)">
    <path d="M11.25 52.5L7.5 5.625H52.5L48.75 52.5L30 58.125L11.25 52.5Z" fill="none" stroke-width="1px" stroke="#fff"/>
<path d="M48.75 9.375H30V55.3125L45 50.625L48.75 9.375Z" fill="#ffffff50" stroke-width="1px" stroke="#fff"/>
<path d="M36.5625 32.8125H17.8125L16.875 26.25L31.875 21.5625H16.875L15.9375 15.9375H45L44.0625 22.5L31.875 27.1875H43.125L41.25 45L30 48.75L18.75 45L17.8125 35.625H23.4375L24.375 40.3125L30 42.1875L35.625 40.3125L36.5625 32.8125Z" fill="white" stroke-width="1px" stroke="#000"/>

    </g>
</svg>
