<svg width="60" height="60" viewBox="0 0 60 60" fill="none" xmlns="http://www.w3.org/2000/svg">
<g clip-path="url(#clip0_6_271)" transform="scale(0.85) translate(5, 5)">
<path d="M1.94837 57.404H9.74847C10.8246 57.404 11.6968 56.5316 11.6968 55.4555V21.3615C11.6968 20.2852 10.8246 19.4131 9.74847 19.4131H1.94837C0.872153 19.4131 0 20.2852 0 21.3615V55.4555C0 56.5315 0.872153 57.404 1.94837 57.404Z" fill="none" stroke-width="1px" stroke="#fff"/>/>
<path d="M1.94837 13.4192H9.74847C10.8246 13.4192 11.6968 12.547 11.6968 11.4708V4.54432C11.6968 3.46821 10.8246 2.59595 9.74847 2.59595H1.94837C0.872153 2.59595 0 3.46821 0 4.54432V11.4708C0 12.547 0.872153 13.4192 1.94837 13.4192Z" fill="none" stroke-width="1px" stroke="#fff"/>/>
<path d="M57.0652 23.3677C55.9691 21.9249 54.3529 20.7384 52.2159 19.8084C50.0788 18.8791 47.72 18.4141 45.1391 18.4141C39.8999 18.4141 35.4604 20.4136 31.8208 24.4133C31.0966 25.2091 30.5701 25.0352 30.5701 23.9589V21.3616C30.5701 20.2854 29.6977 19.4132 28.6216 19.4132H21.6539C20.5777 19.4132 19.7056 20.2854 19.7056 21.3616V55.4557C19.7056 56.5318 20.5778 57.4041 21.6539 57.4041H29.454C30.5302 57.4041 31.4024 56.5318 31.4024 55.4557V43.5986C31.4024 38.659 31.7007 35.2732 32.2972 33.4417C32.8936 31.6102 33.997 30.1396 35.6065 29.0295C37.2162 27.9194 39.0337 27.3641 41.0598 27.3641C42.6415 27.3641 43.9945 27.7527 45.1186 28.53C46.2426 29.3071 47.0544 30.3958 47.5539 31.7976C48.0536 33.1991 48.3033 36.2863 48.3033 41.0596V55.4555C48.3033 56.5317 49.1754 57.404 50.2515 57.404H58.0516C59.1277 57.404 59.9999 56.5317 59.9999 55.4555V36.1475C59.9999 32.7343 59.7848 30.1117 59.355 28.2802C58.9253 26.4487 58.1619 24.8112 57.0652 23.3677Z" fill="none" stroke-width="1px" stroke="#fff"/>
</g>
<defs>
<clipPath id="clip0_6_272">
<rect width="60" height="60" fill="white"/>
</clipPath>
</defs>
</svg>
