<svg width="60" height="60" viewBox="0 0 60 60" fill="none" xmlns="http://www.w3.org/2000/svg">
<mask id="mask0_82_49" style="mask-type:luminance" maskUnits="userSpaceOnUse" x="5" y="2" width="50" height="56">
<mask id="path-1-inside-1_82_49" fill="white">
<path d="M28.6814 2.55228L6.8892 15.1305C6.48884 15.3612 6.15633 15.6933 5.92514 16.0934C5.69395 16.4935 5.57224 16.9475 5.57227 17.4095V42.5836C5.57227 43.5234 6.07297 44.3919 6.8892 44.8626L28.6829 57.4507C29.0833 57.6812 29.5373 57.8026 29.9994 57.8026C30.4614 57.8026 30.9154 57.6812 31.3158 57.4507L53.1059 44.8626C53.5053 44.6311 53.8368 44.2987 54.0674 43.8987C54.298 43.4987 54.4195 43.0452 54.4197 42.5836V17.4095C54.4197 16.4702 53.918 15.6012 53.1007 15.1305L31.3137 2.55228C30.9123 2.32191 30.4575 2.20068 29.9947 2.20068C29.5319 2.20068 29.0771 2.32191 28.6757 2.55228"/>
</mask>
<path d="M6.8892 15.1305L7.38852 15.9969L7.3891 15.9966L6.8892 15.1305ZM5.57227 17.4095L6.57227 17.4095L6.57227 17.4095L5.57227 17.4095ZM6.8892 44.8626L7.38937 43.9967L7.38877 43.9963L6.8892 44.8626ZM28.6829 57.4507L28.1828 58.3166L28.1839 58.3172L28.6829 57.4507ZM31.3158 57.4507L31.8148 58.3172L31.816 58.3166L31.3158 57.4507ZM53.1059 44.8626L53.6061 45.7285L53.6074 45.7277L53.1059 44.8626ZM54.4197 42.5836L55.4197 42.5841V42.5836H54.4197ZM53.1007 15.1305L52.6007 15.9965L52.6016 15.997L53.1007 15.1305ZM31.3137 2.55228L31.8137 1.68625L31.8115 1.68496L31.3137 2.55228ZM28.6814 2.55228L28.1815 1.6862L6.38931 14.2644L6.8892 15.1305L7.3891 15.9966L29.1813 3.41837L28.6814 2.55228ZM6.8892 15.1305L6.38989 14.2641C5.83732 14.5825 5.37839 15.0409 5.0593 15.5931L5.92514 16.0934L6.79098 16.5938C6.93428 16.3458 7.14037 16.1399 7.38852 15.9969L6.8892 15.1305ZM5.92514 16.0934L5.0593 15.5931C4.74021 16.1453 4.57224 16.7718 4.57227 17.4096L5.57227 17.4095L6.57227 17.4095C6.57225 17.1231 6.64769 16.8417 6.79098 16.5938L5.92514 16.0934ZM5.57227 17.4095H4.57227V42.5836H5.57227H6.57227V17.4095H5.57227ZM5.57227 42.5836H4.57227C4.57227 43.8806 5.26355 45.0795 6.38964 45.7289L6.8892 44.8626L7.38877 43.9963C6.88238 43.7043 6.57227 43.1662 6.57227 42.5836H5.57227ZM6.8892 44.8626L6.38904 45.7285L28.1828 58.3166L28.6829 57.4507L29.1831 56.5847L7.38937 43.9967L6.8892 44.8626ZM28.6829 57.4507L28.1839 58.3172C28.7361 58.6352 29.3621 58.8026 29.9994 58.8026V57.8026V56.8026C29.7125 56.8026 29.4306 56.7272 29.1819 56.5841L28.6829 57.4507ZM29.9994 57.8026V58.8026C30.6366 58.8026 31.2626 58.6352 31.8148 58.3172L31.3158 57.4507L30.8168 56.5841C30.5681 56.7272 30.2863 56.8026 29.9994 56.8026V57.8026ZM31.3158 57.4507L31.816 58.3166L53.6061 45.7285L53.1059 44.8626L52.6057 43.9967L30.8156 56.5848L31.3158 57.4507ZM53.1059 44.8626L53.6074 45.7277C54.1584 45.4083 54.6157 44.9498 54.9338 44.3981L54.0674 43.8987L53.2011 43.3993C53.058 43.6475 52.8522 43.8538 52.6043 43.9975L53.1059 44.8626ZM54.0674 43.8987L54.9338 44.3981C55.2518 43.8464 55.4194 43.2209 55.4197 42.5841L54.4197 42.5836L53.4197 42.583C53.4196 42.8696 53.3442 43.151 53.2011 43.3993L54.0674 43.8987ZM54.4197 42.5836H55.4197V17.4095H54.4197H53.4197V42.5836H54.4197ZM54.4197 17.4095H55.4197C55.4197 16.1122 54.7267 14.913 53.5998 14.2639L53.1007 15.1305L52.6016 15.997C53.1093 16.2894 53.4197 16.8282 53.4197 17.4095H54.4197ZM53.1007 15.1305L53.6007 14.2645L31.8137 1.68625L31.3137 2.55228L30.8137 3.41832L52.6007 15.9965L53.1007 15.1305ZM31.3137 2.55228L31.8115 1.68496C31.2586 1.36765 30.6322 1.20068 29.9947 1.20068V2.20068V3.20068C30.2829 3.20068 30.566 3.27616 30.816 3.4196L31.3137 2.55228ZM29.9947 2.20068V1.20068C29.3572 1.20068 28.7308 1.36765 28.1779 1.68496L28.6757 2.55228L29.1734 3.4196C29.4234 3.27616 29.7065 3.20068 29.9947 3.20068V2.20068Z" fill="white" mask="url(#path-1-inside-1_82_49)"/>
</mask>
<g mask="url(#mask0_82_49)">
<path d="M76.441 12.9946L15.0344 -17.1047L-16.4512 47.1255L44.9538 77.2264L76.441 12.9946Z" fill="white"/>
</g>
<mask id="mask1_82_49" style="mask-type:luminance" maskUnits="userSpaceOnUse" x="6" y="2" width="48" height="56">
<path d="M30.8311 2.87964C30.9022 2.91063 30.9724 2.94393 31.04 2.98218V2.98315L38.582 7.32104V7.32202L52.8496 15.5603V15.5613C52.9341 15.6105 53.013 15.6633 53.0869 15.7195L30.3975 57.2644C30.3922 57.2654 30.3871 57.2673 30.3818 57.2683L30.1729 57.2957C29.8019 57.3228 29.427 57.255 29.0879 57.0925L28.9453 57.0173L28.9443 57.0164L25.8301 55.2273H25.8311L7.1377 44.4294H7.13574C6.98545 44.3433 6.84959 44.2373 6.72656 44.1189L30.8311 2.87964Z" stroke="white"/>
</mask>
<g mask="url(#mask1_82_49)">
<path d="M-20.4395 21.8974L22.9199 80.5821L80.2633 38.2154L36.9014 -20.4678L-20.4395 21.8974Z" fill="white"/>
</g>
<mask id="mask2_82_49" style="mask-type:luminance" maskUnits="userSpaceOnUse" x="6" y="2" width="49" height="56">
<mask id="path-6-inside-2_82_49" fill="white">
<path d="M29.7339 2.21515C29.3633 2.25258 29.0046 2.36748 28.6813 2.5524L6.95117 15.0944L30.3831 57.7735C30.7089 57.727 31.0296 57.6184 31.3193 57.4508L53.1115 44.8627C53.4405 44.6723 53.7245 44.413 53.9441 44.1027C54.1637 43.7924 54.3138 43.4384 54.3839 43.0647L30.4969 2.25808C30.3214 2.22312 30.143 2.20545 29.9641 2.20532L29.7468 2.21566"/>
</mask>
<path d="M28.6813 2.5524L28.1849 1.6843L28.1814 1.68631L28.6813 2.5524ZM6.95117 15.0944L6.45129 14.2283L5.60351 14.7176L6.0746 15.5757L6.95117 15.0944ZM30.3831 57.7735L29.5065 58.2548L29.8395 58.8613L30.5245 58.7635L30.3831 57.7735ZM31.3193 57.4508L30.8191 56.5849L30.8185 56.5852L31.3193 57.4508ZM53.1115 44.8627L53.6116 45.7286L53.6124 45.7282L53.1115 44.8627ZM54.3839 43.0647L55.3667 43.2493L55.4357 42.882L55.2469 42.5595L54.3839 43.0647ZM30.4969 2.25808L31.3599 1.75289L31.1329 1.36516L30.6923 1.27736L30.4969 2.25808ZM29.9641 2.20532L29.9648 1.20532L29.9407 1.20531L29.9165 1.20645L29.9641 2.20532ZM29.7339 2.21515L29.6334 1.22021C29.1234 1.27173 28.6299 1.42984 28.1849 1.68431L28.6813 2.5524L29.1777 3.42049C29.3794 3.30512 29.6032 3.23344 29.8344 3.21009L29.7339 2.21515ZM28.6813 2.5524L28.1814 1.68631L6.45129 14.2283L6.95117 15.0944L7.45106 15.9605L29.1812 3.41849L28.6813 2.5524ZM6.95117 15.0944L6.0746 15.5757L29.5065 58.2548L30.3831 57.7735L31.2596 57.2923L7.82775 14.6131L6.95117 15.0944ZM30.3831 57.7735L30.5245 58.7635C30.9735 58.6993 31.4167 58.5497 31.8201 58.3163L31.3193 57.4508L30.8185 56.5852C30.6426 56.687 30.4444 56.7546 30.2416 56.7836L30.3831 57.7735ZM31.3193 57.4508L31.8195 58.3167L53.6116 45.7286L53.1115 44.8627L52.6113 43.9968L30.8191 56.5849L31.3193 57.4508ZM53.1115 44.8627L53.6124 45.7282C54.066 45.4657 54.4576 45.1082 54.7604 44.6804L53.9441 44.1027L53.1279 43.5251C52.9914 43.7179 52.8149 43.8789 52.6105 43.9972L53.1115 44.8627ZM53.9441 44.1027L54.7604 44.6804C55.0632 44.2526 55.27 43.7644 55.3667 43.2493L54.3839 43.0647L53.4011 42.8801C53.3575 43.1123 53.2643 43.3323 53.1279 43.5251L53.9441 44.1027ZM54.3839 43.0647L55.2469 42.5595L31.3599 1.75289L30.4969 2.25808L29.6338 2.76326L53.5209 43.5699L54.3839 43.0647ZM30.4969 2.25808L30.6923 1.27736C30.4527 1.22962 30.209 1.2055 29.9648 1.20532L29.9641 2.20532L29.9634 3.20532C30.0769 3.2054 30.1901 3.21662 30.3014 3.2388L30.4969 2.25808ZM29.9641 2.20532L29.9165 1.20645L29.6993 1.21679L29.7468 2.21566L29.7944 3.21453L30.0116 3.20419L29.9641 2.20532Z" fill="white" mask="url(#path-6-inside-2_82_49)"/>
</mask>
<g mask="url(#mask2_82_49)">
<path d="M6.95117 2.20532V57.7746H54.3751V2.20532H6.95117Z" fill="white"/>
</g>
</svg>
