<svg width="60" height="60" viewBox="0 0 60 60" fill="none" xmlns="http://www.w3.org/2000/svg">
<mask id="mask0_6_252" style="mask-type:luminance" maskUnits="userSpaceOnUse" x="5" y="2" width="50" height="56">
<path d="M28.6811 2.55228L6.88896 15.1305C6.4886 15.3612 6.15609 15.6933 5.9249 16.0934C5.69371 16.4935 5.572 16.9475 5.57202 17.4095V42.5836C5.57202 43.5234 6.07272 44.3919 6.88896 44.8626L28.6827 57.4507C29.0831 57.6812 29.5371 57.8026 29.9991 57.8026C30.4612 57.8026 30.9151 57.6812 31.3155 57.4507L53.1056 44.8626C53.505 44.6311 53.8366 44.2987 54.0672 43.8987C54.2977 43.4987 54.4192 43.0452 54.4195 42.5836V17.4095C54.4195 16.4702 53.9177 15.6012 53.1005 15.1305L31.3135 2.55228C30.912 2.32191 30.4573 2.20068 29.9945 2.20068C29.5316 2.20068 29.0769 2.32191 28.6754 2.55228" fill="white"/>
</mask>
<g mask="url(#mask0_6_252)">
<path d="M76.4412 12.9946L15.0347 -17.1047L-16.4509 47.1255L44.954 77.2264L76.4412 12.9946Z" fill="url(#paint0_linear_6_252)"/>
</g>
<mask id="mask1_6_252" style="mask-type:luminance" maskUnits="userSpaceOnUse" x="6" y="2" width="48" height="56">
<path d="M6.11206 44.182C6.32052 44.4525 6.58122 44.6869 6.88795 44.8627L25.5817 55.6605L28.6956 57.4502C29.1612 57.7192 29.6919 57.833 30.2133 57.7942C30.3871 57.7803 30.5609 57.7477 30.7305 57.6996L53.7145 15.6153C53.5386 15.4239 53.3327 15.2635 53.102 15.1291L38.8329 6.88911L31.2902 2.54929C31.0759 2.42775 30.8463 2.33554 30.6074 2.27515L6.11206 44.182Z" fill="white"/>
</mask>
<g mask="url(#mask1_6_252)">
<path d="M-20.4377 21.8974L22.9216 80.5821L80.265 38.2154L36.9031 -20.4678L-20.4377 21.8974Z" fill="url(#paint1_linear_6_252)"/>
</g>
<mask id="mask2_6_252" style="mask-type:luminance" maskUnits="userSpaceOnUse" x="6" y="2" width="49" height="56">
<path d="M29.7344 2.21515C29.3638 2.25258 29.0051 2.36748 28.6818 2.5524L6.95166 15.0944L30.3835 57.7735C30.7094 57.727 31.0301 57.6184 31.3198 57.4508L53.1119 44.8627C53.441 44.6723 53.725 44.413 53.9446 44.1027C54.1642 43.7924 54.3142 43.4384 54.3844 43.0647L30.4973 2.25808C30.3219 2.22312 30.1435 2.20545 29.9646 2.20532L29.7473 2.21566" fill="white"/>
</mask>
<g mask="url(#mask2_6_252)">
<path d="M6.95117 2.20532V57.7746H54.3751V2.20532H6.95117Z" fill="url(#paint2_linear_6_252)"/>
</g>
<defs>
<linearGradient id="paint0_linear_6_252" x1="45.7196" y1="-2.10264" x2="14.236" y2="62.1235" gradientUnits="userSpaceOnUse">
<stop offset="0.3" stop-color="#3E863D"/>
<stop offset="0.5" stop-color="#55934F"/>
<stop offset="0.8" stop-color="#5AAD45"/>
</linearGradient>
<linearGradient id="paint1_linear_6_252" x1="1.50133" y1="51.5762" x2="58.8474" y2="9.20434" gradientUnits="userSpaceOnUse">
<stop offset="0.57" stop-color="#3E863D"/>
<stop offset="0.72" stop-color="#619857"/>
<stop offset="1" stop-color="#76AC64"/>
</linearGradient>
<linearGradient id="paint2_linear_6_252" x1="6.96721" y1="29.9915" x2="54.3839" y2="29.9915" gradientUnits="userSpaceOnUse">
<stop offset="0.16" stop-color="#6BBF47"/>
<stop offset="0.38" stop-color="#79B461"/>
<stop offset="0.47" stop-color="#75AC64"/>
<stop offset="0.7" stop-color="#659E5A"/>
<stop offset="0.9" stop-color="#3E863D"/>
</linearGradient>
</defs>
</svg>
