<svg width="61" height="60" viewBox="0 0 61 60" fill="none" xmlns="http://www.w3.org/2000/svg">
<path d="M38 5V8.5C38 9.90013 38 10.6002 37.7275 11.135C37.4877 11.6054 37.1055 11.9878 36.635 12.2275C36.1003 12.5 35.4002 12.5 34 12.5H27C25.5998 12.5 24.8998 12.5 24.365 12.2275C23.8946 11.9878 23.5122 11.6054 23.2725 11.135C23 10.6002 23 9.90013 23 8.5V5M21 55H40C42.8003 55 44.2005 55 45.27 54.455C46.2108 53.9757 46.9757 53.2108 47.455 52.27C48 51.2005 48 49.8002 48 47V13C48 10.1997 48 8.7996 47.455 7.73005C46.9757 6.78923 46.2108 6.02432 45.27 5.54497C44.2005 5 42.8003 5 40 5H21C18.1997 5 16.7996 5 15.7301 5.54497C14.7892 6.02432 14.0243 6.78923 13.545 7.73005C13 8.7996 13 10.1997 13 13V47C13 49.8002 13 51.2005 13.545 52.27C14.0243 53.2108 14.7892 53.9757 15.7301 54.455C16.7996 55 18.1997 55 21 55Z" stroke="#FFF5F5" stroke-width="5" stroke-linecap="round" stroke-linejoin="round"/>
</svg>
