<svg width="60" height="60" viewBox="0 0 60 60" fill="none" xmlns="http://www.w3.org/2000/svg">
<rect width="33" height="49" transform="translate(13 6)" fill="#865D8D"/>
<path d="M37.5 5V8.5C37.5 9.90013 37.5 10.6002 37.2275 11.135C36.9877 11.6054 36.6055 11.9878 36.135 12.2275C35.6003 12.5 34.9002 12.5 33.5 12.5H26.5C25.0998 12.5 24.3998 12.5 23.865 12.2275C23.3946 11.9878 23.0122 11.6054 22.7725 11.135C22.5 10.6002 22.5 9.90013 22.5 8.5V5M20.5 55H39.5C42.3003 55 43.7005 55 44.77 54.455C45.7108 53.9757 46.4757 53.2108 46.955 52.27C47.5 51.2005 47.5 49.8002 47.5 47V13C47.5 10.1997 47.5 8.7996 46.955 7.73005C46.4757 6.78923 45.7108 6.02432 44.77 5.54497C43.7005 5 42.3003 5 39.5 5H20.5C17.6997 5 16.2996 5 15.2301 5.54497C14.2892 6.02432 13.5243 6.78923 13.045 7.73005C12.5 8.7996 12.5 10.1997 12.5 13V47C12.5 49.8002 12.5 51.2005 13.045 52.27C13.5243 53.2108 14.2892 53.9757 15.2301 54.455C16.2996 55 17.6997 55 20.5 55Z" stroke="black" stroke-width="5" stroke-linecap="round" stroke-linejoin="round"/>
</svg>
