<svg width="60" height="60" viewBox="0 0 60 60" fill="none" xmlns="http://www.w3.org/2000/svg">
<path fill-rule="evenodd" clip-rule="evenodd" d="M24.4058 3.75C20.2862 3.75 16.9467 6.98349 16.9467 10.9722V15.9722H29.8566V17.3611H11.209C7.08951 17.3611 3.75 20.5946 3.75 24.5833V35.4167C3.75 39.4054 7.08951 42.6388 11.209 42.6388H15.5123V36.5278C15.5123 32.5391 18.8518 29.3055 22.9714 29.3055H36.7417C40.2276 29.3055 43.0532 26.5695 43.0532 23.1945V10.9722C43.0532 6.98349 39.7138 3.75 35.5943 3.75H24.4058ZM22.6845 12.6389C24.1104 12.6389 25.2664 11.5196 25.2664 10.1389C25.2664 8.75818 24.1104 7.63888 22.6845 7.63888C21.2584 7.63888 20.1024 8.75818 20.1024 10.1389C20.1024 11.5196 21.2584 12.6389 22.6845 12.6389Z" fill="none" stroke="#fff"/>
<path fill-rule="evenodd" clip-rule="evenodd" d="M35.594 56.2499C39.7136 56.2499 43.0531 53.0165 43.0531 49.0278V44.0277H30.1432V42.6389H48.7908C52.9104 42.6389 56.2497 39.4053 56.2497 35.4166V24.5832C56.2497 20.5946 52.9104 17.3611 48.7908 17.3611H44.4875V23.4721C44.4875 27.461 41.1479 30.6944 37.0286 30.6944H23.258C19.7722 30.6944 16.9465 33.4304 16.9465 36.8054V49.0278C16.9465 53.0165 20.2861 56.2499 24.4055 56.2499H35.594ZM37.3154 47.3611C35.8893 47.3611 34.7334 48.4803 34.7334 49.8611C34.7334 51.2418 35.8893 52.361 37.3154 52.361C38.7414 52.361 39.8973 51.2418 39.8973 49.8611C39.8973 48.4803 38.7414 47.3611 37.3154 47.3611Z" fill="#fff"/>
<defs>
<linearGradient id="paint0_linear_6_247" x1="23.4017" y1="3.75" x2="23.4017" y2="42.6388" gradientUnits="userSpaceOnUse">
<stop stop-color="#327EBD"/>
<stop offset="1" stop-color="#1565A7"/>
</linearGradient>
<linearGradient id="paint1_linear_6_247" x1="36.5982" y1="17.3611" x2="36.5982" y2="56.2499" gradientUnits="userSpaceOnUse">
<stop stop-color="#FFDA4B"/>
<stop offset="1" stop-color="#F9C600"/>
</linearGradient>
</defs>
</svg>
